<mxfile host="app.diagrams.net" modified="2023-06-29T12:45:51.385Z" agent="Mozilla/5.0 (Windows NT 10.0; Win64; x64) AppleWebKit/537.36 (KHTML, like Gecko) Chrome/114.0.0.0 Safari/537.36 Edg/114.0.1823.58" version="21.5.2" etag="_iV8Xww6aGBZ6q3QMZ5z" type="github">
  <diagram name="Seite-1" id="kYKdqDdC5NNswuA6be4U">
    <mxGraphModel>
      <root>
        <mxCell id="0" />
        <mxCell id="1" parent="0" />
      </root>
    </mxGraphModel>
  </diagram>
</mxfile>
